<svg xmlns="http://www.w3.org/2000/svg" xmlns:xlink="http://www.w3.org/1999/xlink" width="1600" height="950.11"><rect width="1600" height="950.11" rx="5" ry="5" class="a"/><svg y="0%" x="0%"><circle cx="20" cy="20" r="6" fill="#ff5f58"/><circle cx="40" cy="20" r="6" fill="#ffbd2e"/><circle cx="60" cy="20" r="6" fill="#18c132"/></svg><svg height="890.11" viewBox="0 0 156 89.011" width="1560" x="15" xmlns="http://www.w3.org/2000/svg" xmlns:xlink="http://www.w3.org/1999/xlink" y="50"><style>@keyframes l{0%{transform:translateX(0)}1.4%{transform:translateX(-156px)}8.1%{transform:translateX(-312px)}9.3%{transform:translateX(-468px)}10.3%{transform:translateX(-624px)}12%{transform:translateX(-780px)}12.9%{transform:translateX(-936px)}14.1%{transform:translateX(-1092px)}14.9%{transform:translateX(-1248px)}15.7%{transform:translateX(-1404px)}19.5%{transform:translateX(-1560px)}20.5%{transform:translateX(-1716px)}21.1%{transform:translateX(-1872px)}21.9%{transform:translateX(-2028px)}22.7%{transform:translateX(-2184px)}23.4%{transform:translateX(-2340px)}29.2%{transform:translateX(-2964px)}38.7%{transform:translateX(-3120px)}39.1%{transform:translateX(-3276px)}40%{transform:translateX(-3432px)}40.7%{transform:translateX(-3588px)}41.6%{transform:translateX(-3744px)}43.1%{transform:translateX(-3900px)}44.2%{transform:translateX(-4056px)}45.1%{transform:translateX(-4212px)}45.9%{transform:translateX(-4368px)}46.5%{transform:translateX(-4524px)}51.3%{transform:translateX(-4680px)}52.9%{transform:translateX(-4836px)}53.5%{transform:translateX(-4992px)}54.3%{transform:translateX(-5148px)}55%{transform:translateX(-5304px)}55.8%{transform:translateX(-5460px)}59.6%{transform:translateX(-5616px)}60.4%{transform:translateX(-5772px)}61.1%{transform:translateX(-5928px)}62%{transform:translateX(-6084px)}63.4%{transform:translateX(-6240px)}64.7%{transform:translateX(-6396px)}65.2%{transform:translateX(-6552px)}68.4%{transform:translateX(-6708px)}72.1%{transform:translateX(-6864px)}77.5%{transform:translateX(-7020px)}81.7%{transform:translateX(-7176px)}82.2%{transform:translateX(-7332px)}82.8%{transform:translateX(-7488px)}87.3%{transform:translateX(-7800px)}87.8%{transform:translateX(-8112px)}to{transform:translateX(-8268px)}}.a{fill:#282d35}.f{fill:#a8cc8c;font-weight:700;white-space:pre}.g{fill:#b9c0cb}.g,.h,.i{white-space:pre}.h{fill:#71bef2;font-weight:700}.i{fill:#a8cc8c}</style><g font-family="Monaco,Consolas,Menlo,'Bitstream Vera Sans Mono','Powerline Symbols',monospace" font-size="1.67"><defs><symbol id="1"><text y="1.67" class="f">akshay@akshay-laptop</text><text x="20.04" y="1.67" class="g">:</text><text x="21.042" y="1.67" class="h">~/Documents/bloch-repos/demo</text><text x="49.098" y="1.67" class="g">$</text></symbol><symbol id="2"><text y="1.67" class="f">akshay@akshay-laptop</text><text x="20.04" y="1.67" class="g">:</text><text x="21.042" y="1.67" class="h">~/Documents/bloch-repos/demo</text><text x="49.098" y="1.67" class="g">$</text><text x="51.102" y="1.67" class="g">cat</text></symbol><symbol id="3"><text y="1.67" class="f">akshay@akshay-laptop</text><text x="20.04" y="1.67" class="g">:</text><text x="21.042" y="1.67" class="h">~/Documents/bloch-repos/demo</text><text x="49.098" y="1.67" class="g">$</text><text x="51.102" y="1.67" class="g">cat</text><text x="55.11" y="1.67" class="g">bell.bloch</text></symbol><symbol id="4"><text y="1.67" class="g">function</text><text x="9.018" y="1.67" class="g">make_bell_state(qubit</text><text x="31.062" y="1.67" class="g">a,</text><text x="34.068" y="1.67" class="g">qubit</text><text x="40.08" y="1.67" class="g">b)</text><text x="43.086" y="1.67" class="g">-&gt;</text><text x="46.092" y="1.67" class="g">void</text><text x="51.102" y="1.67" class="g">{</text></symbol><symbol id="5"><text x="4.008" y="1.67" class="g">h(a);</text></symbol><symbol id="6"><text x="4.008" y="1.67" class="g">cx(a,</text><text x="10.02" y="1.67" class="g">b);</text></symbol><symbol id="7"><text y="1.67" class="g">}</text></symbol><symbol id="8"><text y="1.67" class="g">function</text><text x="9.018" y="1.67" class="g">main()</text><text x="16.032" y="1.67" class="g">-&gt;</text><text x="19.038" y="1.67" class="g">void</text><text x="24.048" y="1.67" class="g">{</text></symbol><symbol id="9"><text x="4.008" y="1.67" class="g">@tracked</text><text x="13.026" y="1.67" class="g">qubit[2]</text><text x="22.044" y="1.67" class="g">q;</text></symbol><symbol id="10"><text x="4.008" y="1.67" class="g">make_bell_state(q[0],</text><text x="26.052" y="1.67" class="g">q[1]);</text></symbol><symbol id="11"><text x="4.008" y="1.67" class="g">bit[2]</text><text x="11.022" y="1.67" class="g">results;</text></symbol><symbol id="12"><text x="4.008" y="1.67" class="g">results[0]</text><text x="15.03" y="1.67" class="g">=</text><text x="17.034" y="1.67" class="g">measure</text><text x="25.05" y="1.67" class="g">q[0];</text></symbol><symbol id="13"><text x="4.008" y="1.67" class="g">results[1]</text><text x="15.03" y="1.67" class="g">=</text><text x="17.034" y="1.67" class="g">measure</text><text x="25.05" y="1.67" class="g">q[1];</text></symbol><symbol id="14"><text y="1.67" class="f">akshay@akshay-laptop</text><text x="20.04" y="1.67" class="g">:</text><text x="21.042" y="1.67" class="h">~/Documents/bloch-repos/demo</text><text x="49.098" y="1.67" class="g">$</text><text x="51.102" y="1.67" class="g">bloch</text></symbol><symbol id="15"><text y="1.67" class="f">akshay@akshay-laptop</text><text x="20.04" y="1.67" class="g">:</text><text x="21.042" y="1.67" class="h">~/Documents/bloch-repos/demo</text><text x="49.098" y="1.67" class="g">$</text><text x="51.102" y="1.67" class="g">bloch</text><text x="57.114" y="1.67" class="g">bell.bloch</text></symbol><symbol id="16"><text y="1.67" class="f">akshay@akshay-laptop</text><text x="20.04" y="1.67" class="g">:</text><text x="21.042" y="1.67" class="h">~/Documents/bloch-repos/demo</text><text x="49.098" y="1.67" class="g">$</text><text x="51.102" y="1.67" class="g">bloch</text><text x="57.114" y="1.67" class="g">bell.bloch</text><text x="68.136" y="1.67" class="g">--shots=8192</text></symbol><symbol id="17"><text y="1.67" class="i">[INFO]:</text><text x="8.016" y="1.67" class="i">suppressing</text><text x="20.04" y="1.67" class="i">echo;</text><text x="26.052" y="1.67" class="i">to</text><text x="29.058" y="1.67" class="i">view</text><text x="34.068" y="1.67" class="i">them</text><text x="39.078" y="1.67" class="i">use</text><text x="43.086" y="1.67" class="i">--echo=all</text></symbol><symbol id="18"><text y="1.67" class="g">Shots:</text><text x="7.014" y="1.67" class="g">8192</text></symbol><symbol id="19"><text y="1.67" class="g">Backend:</text><text x="9.018" y="1.67" class="g">Bloch</text><text x="15.03" y="1.67" class="g">Ideal</text><text x="21.042" y="1.67" class="g">Simulator</text></symbol><symbol id="20"><text y="1.67" class="g">Elapsed:</text><text x="9.018" y="1.67" class="g">0.084s</text></symbol><symbol id="21"><text y="1.67" class="g">qubit[]</text><text x="8.016" y="1.67" class="g">q</text></symbol><symbol id="22"><text y="1.67" class="g">outcome</text><text x="8.016" y="1.67" class="g">|</text><text x="10.02" y="1.67" class="g">count</text><text x="16.032" y="1.67" class="g">|</text><text x="19.038" y="1.67" class="g">prob</text></symbol><symbol id="23"><text y="1.67" class="g">--------+-------+-----</text></symbol><symbol id="24"><text y="1.67" class="g">00</text><text x="8.016" y="1.67" class="g">|</text><text x="11.022" y="1.67" class="g">4088</text><text x="16.032" y="1.67" class="g">|</text><text x="18.036" y="1.67" class="g">0.499</text></symbol><symbol id="25"><text y="1.67" class="g">11</text><text x="8.016" y="1.67" class="g">|</text><text x="11.022" y="1.67" class="g">4104</text><text x="16.032" y="1.67" class="g">|</text><text x="18.036" y="1.67" class="g">0.501</text></symbol><symbol id="a"><path fill="transparent" d="M0 0h156v41H0z"/></symbol><symbol id="b"><path fill="#6f7683" d="M0 0h1.102v2.171H0z"/></symbol></defs><path class="a" d="M0 0h156v89.011H0z"/><g style="animation-duration:16.236793s;animation-iteration-count:infinite;animation-name:l;animation-timing-function:steps(1,end)"><svg width="8424"><svg><use xlink:href="#a"/><use xlink:href="#b" x="-.004"/></svg><svg x="156"><use xlink:href="#a"/><use xlink:href="#b" x="50.996"/><use xlink:href="#1"/></svg><svg x="312"><use xlink:href="#a"/><use xlink:href="#b" x="51.996"/><text y="1.67" class="f">akshay@akshay-laptop</text><text x="20.04" y="1.67" class="g">:</text><text x="21.042" y="1.67" class="h">~/Documents/bloch-repos/demo</text><text x="49.098" y="1.67" class="g">$</text><text x="51.102" y="1.67" class="g">c</text></svg><svg x="468"><use xlink:href="#a"/><use xlink:href="#b" x="52.996"/><text y="1.67" class="f">akshay@akshay-laptop</text><text x="20.04" y="1.67" class="g">:</text><text x="21.042" y="1.67" class="h">~/Documents/bloch-repos/demo</text><text x="49.098" y="1.67" class="g">$</text><text x="51.102" y="1.67" class="g">ca</text></svg><svg x="624"><use xlink:href="#a"/><use xlink:href="#b" x="53.996"/><use xlink:href="#2"/></svg><svg x="780"><use xlink:href="#a"/><use xlink:href="#b" x="54.996"/><use xlink:href="#2"/></svg><svg x="936"><use xlink:href="#a"/><use xlink:href="#b" x="55.996"/><text y="1.67" class="f">akshay@akshay-laptop</text><text x="20.04" y="1.67" class="g">:</text><text x="21.042" y="1.67" class="h">~/Documents/bloch-repos/demo</text><text x="49.098" y="1.67" class="g">$</text><text x="51.102" y="1.67" class="g">cat</text><text x="55.11" y="1.67" class="g">b</text></svg><svg x="1092"><use xlink:href="#a"/><use xlink:href="#b" x="56.996"/><text y="1.67" class="f">akshay@akshay-laptop</text><text x="20.04" y="1.67" class="g">:</text><text x="21.042" y="1.67" class="h">~/Documents/bloch-repos/demo</text><text x="49.098" y="1.67" class="g">$</text><text x="51.102" y="1.67" class="g">cat</text><text x="55.11" y="1.67" class="g">be</text></svg><svg x="1248"><use xlink:href="#a"/><use xlink:href="#b" x="57.996"/><text y="1.67" class="f">akshay@akshay-laptop</text><text x="20.04" y="1.67" class="g">:</text><text x="21.042" y="1.67" class="h">~/Documents/bloch-repos/demo</text><text x="49.098" y="1.67" class="g">$</text><text x="51.102" y="1.67" class="g">cat</text><text x="55.11" y="1.67" class="g">bel</text></svg><svg x="1404"><use xlink:href="#a"/><use xlink:href="#b" x="58.996"/><text y="1.67" class="f">akshay@akshay-laptop</text><text x="20.04" y="1.67" class="g">:</text><text x="21.042" y="1.67" class="h">~/Documents/bloch-repos/demo</text><text x="49.098" y="1.67" class="g">$</text><text x="51.102" y="1.67" class="g">cat</text><text x="55.11" y="1.67" class="g">bell</text></svg><svg x="1560"><use xlink:href="#a"/><use xlink:href="#b" x="59.996"/><text y="1.67" class="f">akshay@akshay-laptop</text><text x="20.04" y="1.67" class="g">:</text><text x="21.042" y="1.67" class="h">~/Documents/bloch-repos/demo</text><text x="49.098" y="1.67" class="g">$</text><text x="51.102" y="1.67" class="g">cat</text><text x="55.11" y="1.67" class="g">bell.</text></svg><svg x="1716"><use xlink:href="#a"/><use xlink:href="#b" x="60.996"/><text y="1.67" class="f">akshay@akshay-laptop</text><text x="20.04" y="1.67" class="g">:</text><text x="21.042" y="1.67" class="h">~/Documents/bloch-repos/demo</text><text x="49.098" y="1.67" class="g">$</text><text x="51.102" y="1.67" class="g">cat</text><text x="55.11" y="1.67" class="g">bell.b</text></svg><svg x="1872"><use xlink:href="#a"/><use xlink:href="#b" x="61.996"/><text y="1.67" class="f">akshay@akshay-laptop</text><text x="20.04" y="1.67" class="g">:</text><text x="21.042" y="1.67" class="h">~/Documents/bloch-repos/demo</text><text x="49.098" y="1.67" class="g">$</text><text x="51.102" y="1.67" class="g">cat</text><text x="55.11" y="1.67" class="g">bell.bl</text></svg><svg x="2028"><use xlink:href="#a"/><use xlink:href="#b" x="62.996"/><text y="1.67" class="f">akshay@akshay-laptop</text><text x="20.04" y="1.67" class="g">:</text><text x="21.042" y="1.67" class="h">~/Documents/bloch-repos/demo</text><text x="49.098" y="1.67" class="g">$</text><text x="51.102" y="1.67" class="g">cat</text><text x="55.11" y="1.67" class="g">bell.blo</text></svg><svg x="2184"><use xlink:href="#a"/><use xlink:href="#b" x="63.996"/><text y="1.67" class="f">akshay@akshay-laptop</text><text x="20.04" y="1.67" class="g">:</text><text x="21.042" y="1.67" class="h">~/Documents/bloch-repos/demo</text><text x="49.098" y="1.67" class="g">$</text><text x="51.102" y="1.67" class="g">cat</text><text x="55.11" y="1.67" class="g">bell.bloc</text></svg><svg x="2340"><use xlink:href="#a"/><use xlink:href="#b" x="64.996"/><use xlink:href="#3"/></svg><svg x="2496"><use xlink:href="#a"/><use xlink:href="#b" x="-.004" y="2.146"/><use xlink:href="#3"/></svg><svg x="2652"><use xlink:href="#a"/><use xlink:href="#b" x="-.004" y="32.54"/><use xlink:href="#3"/><use xlink:href="#4" y="2.171"/><use xlink:href="#5" y="4.342"/><use xlink:href="#6" y="6.513"/><use xlink:href="#7" y="8.684"/><use xlink:href="#8" y="13.026"/><use xlink:href="#9" y="15.197"/><use xlink:href="#10" y="19.539"/><use xlink:href="#11" y="23.881"/><use xlink:href="#12" y="26.052"/><use xlink:href="#13" y="28.223"/><use xlink:href="#7" y="30.394"/></svg><svg x="2808"><use xlink:href="#a"/><use xlink:href="#b" x="-.004" y="32.54"/><use xlink:href="#3"/><use xlink:href="#4" y="2.171"/><use xlink:href="#5" y="4.342"/><use xlink:href="#6" y="6.513"/><use xlink:href="#7" y="8.684"/><use xlink:href="#8" y="13.026"/><use xlink:href="#9" y="15.197"/><use xlink:href="#10" y="19.539"/><use xlink:href="#11" y="23.881"/><use xlink:href="#12" y="26.052"/><use xlink:href="#13" y="28.223"/><use xlink:href="#7" y="30.394"/></svg><svg x="2964"><use xlink:href="#a"/><use xlink:href="#b" x="50.996" y="32.54"/><use xlink:href="#3"/><use xlink:href="#4" y="2.171"/><use xlink:href="#5" y="4.342"/><use xlink:href="#6" y="6.513"/><use xlink:href="#7" y="8.684"/><use xlink:href="#8" y="13.026"/><use xlink:href="#9" y="15.197"/><use xlink:href="#10" y="19.539"/><use xlink:href="#11" y="23.881"/><use xlink:href="#12" y="26.052"/><use xlink:href="#13" y="28.223"/><use xlink:href="#7" y="30.394"/><use xlink:href="#1" y="32.565"/></svg><svg x="3120"><use xlink:href="#a"/><use xlink:href="#b" x="51.996" y="32.54"/><use xlink:href="#3"/><use xlink:href="#4" y="2.171"/><use xlink:href="#5" y="4.342"/><use xlink:href="#6" y="6.513"/><use xlink:href="#7" y="8.684"/><use xlink:href="#8" y="13.026"/><use xlink:href="#9" y="15.197"/><use xlink:href="#10" y="19.539"/><use xlink:href="#11" y="23.881"/><use xlink:href="#12" y="26.052"/><use xlink:href="#13" y="28.223"/><use xlink:href="#7" y="30.394"/><text y="34.235" class="f">akshay@akshay-laptop</text><text x="20.04" y="34.235" class="g">:</text><text x="21.042" y="34.235" class="h">~/Documents/bloch-repos/demo</text><text x="49.098" y="34.235" class="g">$</text><text x="51.102" y="34.235" class="g">b</text></svg><svg x="3276"><use xlink:href="#a"/><use xlink:href="#b" x="52.996" y="32.54"/><use xlink:href="#3"/><use xlink:href="#4" y="2.171"/><use xlink:href="#5" y="4.342"/><use xlink:href="#6" y="6.513"/><use xlink:href="#7" y="8.684"/><use xlink:href="#8" y="13.026"/><use xlink:href="#9" y="15.197"/><use xlink:href="#10" y="19.539"/><use xlink:href="#11" y="23.881"/><use xlink:href="#12" y="26.052"/><use xlink:href="#13" y="28.223"/><use xlink:href="#7" y="30.394"/><text y="34.235" class="f">akshay@akshay-laptop</text><text x="20.04" y="34.235" class="g">:</text><text x="21.042" y="34.235" class="h">~/Documents/bloch-repos/demo</text><text x="49.098" y="34.235" class="g">$</text><text x="51.102" y="34.235" class="g">bl</text></svg><svg x="3432"><use xlink:href="#a"/><use xlink:href="#b" x="53.996" y="32.54"/><use xlink:href="#3"/><use xlink:href="#4" y="2.171"/><use xlink:href="#5" y="4.342"/><use xlink:href="#6" y="6.513"/><use xlink:href="#7" y="8.684"/><use xlink:href="#8" y="13.026"/><use xlink:href="#9" y="15.197"/><use xlink:href="#10" y="19.539"/><use xlink:href="#11" y="23.881"/><use xlink:href="#12" y="26.052"/><use xlink:href="#13" y="28.223"/><use xlink:href="#7" y="30.394"/><text y="34.235" class="f">akshay@akshay-laptop</text><text x="20.04" y="34.235" class="g">:</text><text x="21.042" y="34.235" class="h">~/Documents/bloch-repos/demo</text><text x="49.098" y="34.235" class="g">$</text><text x="51.102" y="34.235" class="g">blo</text></svg><svg x="3588"><use xlink:href="#a"/><use xlink:href="#b" x="54.996" y="32.54"/><use xlink:href="#3"/><use xlink:href="#4" y="2.171"/><use xlink:href="#5" y="4.342"/><use xlink:href="#6" y="6.513"/><use xlink:href="#7" y="8.684"/><use xlink:href="#8" y="13.026"/><use xlink:href="#9" y="15.197"/><use xlink:href="#10" y="19.539"/><use xlink:href="#11" y="23.881"/><use xlink:href="#12" y="26.052"/><use xlink:href="#13" y="28.223"/><use xlink:href="#7" y="30.394"/><text y="34.235" class="f">akshay@akshay-laptop</text><text x="20.04" y="34.235" class="g">:</text><text x="21.042" y="34.235" class="h">~/Documents/bloch-repos/demo</text><text x="49.098" y="34.235" class="g">$</text><text x="51.102" y="34.235" class="g">bloc</text></svg><svg x="3744"><use xlink:href="#a"/><use xlink:href="#b" x="55.996" y="32.54"/><use xlink:href="#3"/><use xlink:href="#4" y="2.171"/><use xlink:href="#5" y="4.342"/><use xlink:href="#6" y="6.513"/><use xlink:href="#7" y="8.684"/><use xlink:href="#8" y="13.026"/><use xlink:href="#9" y="15.197"/><use xlink:href="#10" y="19.539"/><use xlink:href="#11" y="23.881"/><use xlink:href="#12" y="26.052"/><use xlink:href="#13" y="28.223"/><use xlink:href="#7" y="30.394"/><use xlink:href="#14" y="32.565"/></svg><svg x="3900"><use xlink:href="#a"/><use xlink:href="#b" x="56.996" y="32.54"/><use xlink:href="#3"/><use xlink:href="#4" y="2.171"/><use xlink:href="#5" y="4.342"/><use xlink:href="#6" y="6.513"/><use xlink:href="#7" y="8.684"/><use xlink:href="#8" y="13.026"/><use xlink:href="#9" y="15.197"/><use xlink:href="#10" y="19.539"/><use xlink:href="#11" y="23.881"/><use xlink:href="#12" y="26.052"/><use xlink:href="#13" y="28.223"/><use xlink:href="#7" y="30.394"/><use xlink:href="#14" y="32.565"/></svg><svg x="4056"><use xlink:href="#a"/><use xlink:href="#b" x="57.996" y="32.54"/><use xlink:href="#3"/><use xlink:href="#4" y="2.171"/><use xlink:href="#5" y="4.342"/><use xlink:href="#6" y="6.513"/><use xlink:href="#7" y="8.684"/><use xlink:href="#8" y="13.026"/><use xlink:href="#9" y="15.197"/><use xlink:href="#10" y="19.539"/><use xlink:href="#11" y="23.881"/><use xlink:href="#12" y="26.052"/><use xlink:href="#13" y="28.223"/><use xlink:href="#7" y="30.394"/><text y="34.235" class="f">akshay@akshay-laptop</text><text x="20.04" y="34.235" class="g">:</text><text x="21.042" y="34.235" class="h">~/Documents/bloch-repos/demo</text><text x="49.098" y="34.235" class="g">$</text><text x="51.102" y="34.235" class="g">bloch</text><text x="57.114" y="34.235" class="g">b</text></svg><svg x="4212"><use xlink:href="#a"/><use xlink:href="#b" x="58.996" y="32.54"/><use xlink:href="#3"/><use xlink:href="#4" y="2.171"/><use xlink:href="#5" y="4.342"/><use xlink:href="#6" y="6.513"/><use xlink:href="#7" y="8.684"/><use xlink:href="#8" y="13.026"/><use xlink:href="#9" y="15.197"/><use xlink:href="#10" y="19.539"/><use xlink:href="#11" y="23.881"/><use xlink:href="#12" y="26.052"/><use xlink:href="#13" y="28.223"/><use xlink:href="#7" y="30.394"/><text y="34.235" class="f">akshay@akshay-laptop</text><text x="20.04" y="34.235" class="g">:</text><text x="21.042" y="34.235" class="h">~/Documents/bloch-repos/demo</text><text x="49.098" y="34.235" class="g">$</text><text x="51.102" y="34.235" class="g">bloch</text><text x="57.114" y="34.235" class="g">be</text></svg><svg x="4368"><use xlink:href="#a"/><use xlink:href="#b" x="59.996" y="32.54"/><use xlink:href="#3"/><use xlink:href="#4" y="2.171"/><use xlink:href="#5" y="4.342"/><use xlink:href="#6" y="6.513"/><use xlink:href="#7" y="8.684"/><use xlink:href="#8" y="13.026"/><use xlink:href="#9" y="15.197"/><use xlink:href="#10" y="19.539"/><use xlink:href="#11" y="23.881"/><use xlink:href="#12" y="26.052"/><use xlink:href="#13" y="28.223"/><use xlink:href="#7" y="30.394"/><text y="34.235" class="f">akshay@akshay-laptop</text><text x="20.04" y="34.235" class="g">:</text><text x="21.042" y="34.235" class="h">~/Documents/bloch-repos/demo</text><text x="49.098" y="34.235" class="g">$</text><text x="51.102" y="34.235" class="g">bloch</text><text x="57.114" y="34.235" class="g">bel</text></svg><svg x="4524"><use xlink:href="#a"/><use xlink:href="#b" x="60.996" y="32.54"/><use xlink:href="#3"/><use xlink:href="#4" y="2.171"/><use xlink:href="#5" y="4.342"/><use xlink:href="#6" y="6.513"/><use xlink:href="#7" y="8.684"/><use xlink:href="#8" y="13.026"/><use xlink:href="#9" y="15.197"/><use xlink:href="#10" y="19.539"/><use xlink:href="#11" y="23.881"/><use xlink:href="#12" y="26.052"/><use xlink:href="#13" y="28.223"/><use xlink:href="#7" y="30.394"/><text y="34.235" class="f">akshay@akshay-laptop</text><text x="20.04" y="34.235" class="g">:</text><text x="21.042" y="34.235" class="h">~/Documents/bloch-repos/demo</text><text x="49.098" y="34.235" class="g">$</text><text x="51.102" y="34.235" class="g">bloch</text><text x="57.114" y="34.235" class="g">bell</text></svg><svg x="4680"><use xlink:href="#a"/><use xlink:href="#b" x="61.996" y="32.54"/><use xlink:href="#3"/><use xlink:href="#4" y="2.171"/><use xlink:href="#5" y="4.342"/><use xlink:href="#6" y="6.513"/><use xlink:href="#7" y="8.684"/><use xlink:href="#8" y="13.026"/><use xlink:href="#9" y="15.197"/><use xlink:href="#10" y="19.539"/><use xlink:href="#11" y="23.881"/><use xlink:href="#12" y="26.052"/><use xlink:href="#13" y="28.223"/><use xlink:href="#7" y="30.394"/><text y="34.235" class="f">akshay@akshay-laptop</text><text x="20.04" y="34.235" class="g">:</text><text x="21.042" y="34.235" class="h">~/Documents/bloch-repos/demo</text><text x="49.098" y="34.235" class="g">$</text><text x="51.102" y="34.235" class="g">bloch</text><text x="57.114" y="34.235" class="g">bell.</text></svg><svg x="4836"><use xlink:href="#a"/><use xlink:href="#b" x="62.996" y="32.54"/><use xlink:href="#3"/><use xlink:href="#4" y="2.171"/><use xlink:href="#5" y="4.342"/><use xlink:href="#6" y="6.513"/><use xlink:href="#7" y="8.684"/><use xlink:href="#8" y="13.026"/><use xlink:href="#9" y="15.197"/><use xlink:href="#10" y="19.539"/><use xlink:href="#11" y="23.881"/><use xlink:href="#12" y="26.052"/><use xlink:href="#13" y="28.223"/><use xlink:href="#7" y="30.394"/><text y="34.235" class="f">akshay@akshay-laptop</text><text x="20.04" y="34.235" class="g">:</text><text x="21.042" y="34.235" class="h">~/Documents/bloch-repos/demo</text><text x="49.098" y="34.235" class="g">$</text><text x="51.102" y="34.235" class="g">bloch</text><text x="57.114" y="34.235" class="g">bell.b</text></svg><svg x="4992"><use xlink:href="#a"/><use xlink:href="#b" x="63.996" y="32.54"/><use xlink:href="#3"/><use xlink:href="#4" y="2.171"/><use xlink:href="#5" y="4.342"/><use xlink:href="#6" y="6.513"/><use xlink:href="#7" y="8.684"/><use xlink:href="#8" y="13.026"/><use xlink:href="#9" y="15.197"/><use xlink:href="#10" y="19.539"/><use xlink:href="#11" y="23.881"/><use xlink:href="#12" y="26.052"/><use xlink:href="#13" y="28.223"/><use xlink:href="#7" y="30.394"/><text y="34.235" class="f">akshay@akshay-laptop</text><text x="20.04" y="34.235" class="g">:</text><text x="21.042" y="34.235" class="h">~/Documents/bloch-repos/demo</text><text x="49.098" y="34.235" class="g">$</text><text x="51.102" y="34.235" class="g">bloch</text><text x="57.114" y="34.235" class="g">bell.bl</text></svg><svg x="5148"><use xlink:href="#a"/><use xlink:href="#b" x="64.996" y="32.54"/><use xlink:href="#3"/><use xlink:href="#4" y="2.171"/><use xlink:href="#5" y="4.342"/><use xlink:href="#6" y="6.513"/><use xlink:href="#7" y="8.684"/><use xlink:href="#8" y="13.026"/><use xlink:href="#9" y="15.197"/><use xlink:href="#10" y="19.539"/><use xlink:href="#11" y="23.881"/><use xlink:href="#12" y="26.052"/><use xlink:href="#13" y="28.223"/><use xlink:href="#7" y="30.394"/><text y="34.235" class="f">akshay@akshay-laptop</text><text x="20.04" y="34.235" class="g">:</text><text x="21.042" y="34.235" class="h">~/Documents/bloch-repos/demo</text><text x="49.098" y="34.235" class="g">$</text><text x="51.102" y="34.235" class="g">bloch</text><text x="57.114" y="34.235" class="g">bell.blo</text></svg><svg x="5304"><use xlink:href="#a"/><use xlink:href="#b" x="65.996" y="32.54"/><use xlink:href="#3"/><use xlink:href="#4" y="2.171"/><use xlink:href="#5" y="4.342"/><use xlink:href="#6" y="6.513"/><use xlink:href="#7" y="8.684"/><use xlink:href="#8" y="13.026"/><use xlink:href="#9" y="15.197"/><use xlink:href="#10" y="19.539"/><use xlink:href="#11" y="23.881"/><use xlink:href="#12" y="26.052"/><use xlink:href="#13" y="28.223"/><use xlink:href="#7" y="30.394"/><text y="34.235" class="f">akshay@akshay-laptop</text><text x="20.04" y="34.235" class="g">:</text><text x="21.042" y="34.235" class="h">~/Documents/bloch-repos/demo</text><text x="49.098" y="34.235" class="g">$</text><text x="51.102" y="34.235" class="g">bloch</text><text x="57.114" y="34.235" class="g">bell.bloc</text></svg><svg x="5460"><use xlink:href="#a"/><use xlink:href="#b" x="66.996" y="32.54"/><use xlink:href="#3"/><use xlink:href="#4" y="2.171"/><use xlink:href="#5" y="4.342"/><use xlink:href="#6" y="6.513"/><use xlink:href="#7" y="8.684"/><use xlink:href="#8" y="13.026"/><use xlink:href="#9" y="15.197"/><use xlink:href="#10" y="19.539"/><use xlink:href="#11" y="23.881"/><use xlink:href="#12" y="26.052"/><use xlink:href="#13" y="28.223"/><use xlink:href="#7" y="30.394"/><use xlink:href="#15" y="32.565"/></svg><svg x="5616"><use xlink:href="#a"/><use xlink:href="#b" x="67.996" y="32.54"/><use xlink:href="#3"/><use xlink:href="#4" y="2.171"/><use xlink:href="#5" y="4.342"/><use xlink:href="#6" y="6.513"/><use xlink:href="#7" y="8.684"/><use xlink:href="#8" y="13.026"/><use xlink:href="#9" y="15.197"/><use xlink:href="#10" y="19.539"/><use xlink:href="#11" y="23.881"/><use xlink:href="#12" y="26.052"/><use xlink:href="#13" y="28.223"/><use xlink:href="#7" y="30.394"/><use xlink:href="#15" y="32.565"/></svg><svg x="5772"><use xlink:href="#a"/><use xlink:href="#b" x="68.996" y="32.54"/><use xlink:href="#3"/><use xlink:href="#4" y="2.171"/><use xlink:href="#5" y="4.342"/><use xlink:href="#6" y="6.513"/><use xlink:href="#7" y="8.684"/><use xlink:href="#8" y="13.026"/><use xlink:href="#9" y="15.197"/><use xlink:href="#10" y="19.539"/><use xlink:href="#11" y="23.881"/><use xlink:href="#12" y="26.052"/><use xlink:href="#13" y="28.223"/><use xlink:href="#7" y="30.394"/><text y="34.235" class="f">akshay@akshay-laptop</text><text x="20.04" y="34.235" class="g">:</text><text x="21.042" y="34.235" class="h">~/Documents/bloch-repos/demo</text><text x="49.098" y="34.235" class="g">$</text><text x="51.102" y="34.235" class="g">bloch</text><text x="57.114" y="34.235" class="g">bell.bloch</text><text x="68.136" y="34.235" class="g">-</text></svg><svg x="5928"><use xlink:href="#a"/><use xlink:href="#b" x="69.996" y="32.54"/><use xlink:href="#3"/><use xlink:href="#4" y="2.171"/><use xlink:href="#5" y="4.342"/><use xlink:href="#6" y="6.513"/><use xlink:href="#7" y="8.684"/><use xlink:href="#8" y="13.026"/><use xlink:href="#9" y="15.197"/><use xlink:href="#10" y="19.539"/><use xlink:href="#11" y="23.881"/><use xlink:href="#12" y="26.052"/><use xlink:href="#13" y="28.223"/><use xlink:href="#7" y="30.394"/><text y="34.235" class="f">akshay@akshay-laptop</text><text x="20.04" y="34.235" class="g">:</text><text x="21.042" y="34.235" class="h">~/Documents/bloch-repos/demo</text><text x="49.098" y="34.235" class="g">$</text><text x="51.102" y="34.235" class="g">bloch</text><text x="57.114" y="34.235" class="g">bell.bloch</text><text x="68.136" y="34.235" class="g">--</text></svg><svg x="6084"><use xlink:href="#a"/><use xlink:href="#b" x="70.996" y="32.54"/><use xlink:href="#3"/><use xlink:href="#4" y="2.171"/><use xlink:href="#5" y="4.342"/><use xlink:href="#6" y="6.513"/><use xlink:href="#7" y="8.684"/><use xlink:href="#8" y="13.026"/><use xlink:href="#9" y="15.197"/><use xlink:href="#10" y="19.539"/><use xlink:href="#11" y="23.881"/><use xlink:href="#12" y="26.052"/><use xlink:href="#13" y="28.223"/><use xlink:href="#7" y="30.394"/><text y="34.235" class="f">akshay@akshay-laptop</text><text x="20.04" y="34.235" class="g">:</text><text x="21.042" y="34.235" class="h">~/Documents/bloch-repos/demo</text><text x="49.098" y="34.235" class="g">$</text><text x="51.102" y="34.235" class="g">bloch</text><text x="57.114" y="34.235" class="g">bell.bloch</text><text x="68.136" y="34.235" class="g">--s</text></svg><svg x="6240"><use xlink:href="#a"/><use xlink:href="#b" x="71.996" y="32.54"/><use xlink:href="#3"/><use xlink:href="#4" y="2.171"/><use xlink:href="#5" y="4.342"/><use xlink:href="#6" y="6.513"/><use xlink:href="#7" y="8.684"/><use xlink:href="#8" y="13.026"/><use xlink:href="#9" y="15.197"/><use xlink:href="#10" y="19.539"/><use xlink:href="#11" y="23.881"/><use xlink:href="#12" y="26.052"/><use xlink:href="#13" y="28.223"/><use xlink:href="#7" y="30.394"/><text y="34.235" class="f">akshay@akshay-laptop</text><text x="20.04" y="34.235" class="g">:</text><text x="21.042" y="34.235" class="h">~/Documents/bloch-repos/demo</text><text x="49.098" y="34.235" class="g">$</text><text x="51.102" y="34.235" class="g">bloch</text><text x="57.114" y="34.235" class="g">bell.bloch</text><text x="68.136" y="34.235" class="g">--sh</text></svg><svg x="6396"><use xlink:href="#a"/><use xlink:href="#b" x="72.996" y="32.54"/><use xlink:href="#3"/><use xlink:href="#4" y="2.171"/><use xlink:href="#5" y="4.342"/><use xlink:href="#6" y="6.513"/><use xlink:href="#7" y="8.684"/><use xlink:href="#8" y="13.026"/><use xlink:href="#9" y="15.197"/><use xlink:href="#10" y="19.539"/><use xlink:href="#11" y="23.881"/><use xlink:href="#12" y="26.052"/><use xlink:href="#13" y="28.223"/><use xlink:href="#7" y="30.394"/><text y="34.235" class="f">akshay@akshay-laptop</text><text x="20.04" y="34.235" class="g">:</text><text x="21.042" y="34.235" class="h">~/Documents/bloch-repos/demo</text><text x="49.098" y="34.235" class="g">$</text><text x="51.102" y="34.235" class="g">bloch</text><text x="57.114" y="34.235" class="g">bell.bloch</text><text x="68.136" y="34.235" class="g">--sho</text></svg><svg x="6552"><use xlink:href="#a"/><use xlink:href="#b" x="73.996" y="32.54"/><use xlink:href="#3"/><use xlink:href="#4" y="2.171"/><use xlink:href="#5" y="4.342"/><use xlink:href="#6" y="6.513"/><use xlink:href="#7" y="8.684"/><use xlink:href="#8" y="13.026"/><use xlink:href="#9" y="15.197"/><use xlink:href="#10" y="19.539"/><use xlink:href="#11" y="23.881"/><use xlink:href="#12" y="26.052"/><use xlink:href="#13" y="28.223"/><use xlink:href="#7" y="30.394"/><text y="34.235" class="f">akshay@akshay-laptop</text><text x="20.04" y="34.235" class="g">:</text><text x="21.042" y="34.235" class="h">~/Documents/bloch-repos/demo</text><text x="49.098" y="34.235" class="g">$</text><text x="51.102" y="34.235" class="g">bloch</text><text x="57.114" y="34.235" class="g">bell.bloch</text><text x="68.136" y="34.235" class="g">--shot</text></svg><svg x="6708"><use xlink:href="#a"/><use xlink:href="#b" x="74.996" y="32.54"/><use xlink:href="#3"/><use xlink:href="#4" y="2.171"/><use xlink:href="#5" y="4.342"/><use xlink:href="#6" y="6.513"/><use xlink:href="#7" y="8.684"/><use xlink:href="#8" y="13.026"/><use xlink:href="#9" y="15.197"/><use xlink:href="#10" y="19.539"/><use xlink:href="#11" y="23.881"/><use xlink:href="#12" y="26.052"/><use xlink:href="#13" y="28.223"/><use xlink:href="#7" y="30.394"/><text y="34.235" class="f">akshay@akshay-laptop</text><text x="20.04" y="34.235" class="g">:</text><text x="21.042" y="34.235" class="h">~/Documents/bloch-repos/demo</text><text x="49.098" y="34.235" class="g">$</text><text x="51.102" y="34.235" class="g">bloch</text><text x="57.114" y="34.235" class="g">bell.bloch</text><text x="68.136" y="34.235" class="g">--shots</text></svg><svg x="6864"><use xlink:href="#a"/><use xlink:href="#b" x="75.996" y="32.54"/><use xlink:href="#3"/><use xlink:href="#4" y="2.171"/><use xlink:href="#5" y="4.342"/><use xlink:href="#6" y="6.513"/><use xlink:href="#7" y="8.684"/><use xlink:href="#8" y="13.026"/><use xlink:href="#9" y="15.197"/><use xlink:href="#10" y="19.539"/><use xlink:href="#11" y="23.881"/><use xlink:href="#12" y="26.052"/><use xlink:href="#13" y="28.223"/><use xlink:href="#7" y="30.394"/><text y="34.235" class="f">akshay@akshay-laptop</text><text x="20.04" y="34.235" class="g">:</text><text x="21.042" y="34.235" class="h">~/Documents/bloch-repos/demo</text><text x="49.098" y="34.235" class="g">$</text><text x="51.102" y="34.235" class="g">bloch</text><text x="57.114" y="34.235" class="g">bell.bloch</text><text x="68.136" y="34.235" class="g">--shots=</text></svg><svg x="7020"><use xlink:href="#a"/><use xlink:href="#b" x="76.996" y="32.54"/><use xlink:href="#3"/><use xlink:href="#4" y="2.171"/><use xlink:href="#5" y="4.342"/><use xlink:href="#6" y="6.513"/><use xlink:href="#7" y="8.684"/><use xlink:href="#8" y="13.026"/><use xlink:href="#9" y="15.197"/><use xlink:href="#10" y="19.539"/><use xlink:href="#11" y="23.881"/><use xlink:href="#12" y="26.052"/><use xlink:href="#13" y="28.223"/><use xlink:href="#7" y="30.394"/><text y="34.235" class="f">akshay@akshay-laptop</text><text x="20.04" y="34.235" class="g">:</text><text x="21.042" y="34.235" class="h">~/Documents/bloch-repos/demo</text><text x="49.098" y="34.235" class="g">$</text><text x="51.102" y="34.235" class="g">bloch</text><text x="57.114" y="34.235" class="g">bell.bloch</text><text x="68.136" y="34.235" class="g">--shots=8</text></svg><svg x="7176"><use xlink:href="#a"/><use xlink:href="#b" x="77.996" y="32.54"/><use xlink:href="#3"/><use xlink:href="#4" y="2.171"/><use xlink:href="#5" y="4.342"/><use xlink:href="#6" y="6.513"/><use xlink:href="#7" y="8.684"/><use xlink:href="#8" y="13.026"/><use xlink:href="#9" y="15.197"/><use xlink:href="#10" y="19.539"/><use xlink:href="#11" y="23.881"/><use xlink:href="#12" y="26.052"/><use xlink:href="#13" y="28.223"/><use xlink:href="#7" y="30.394"/><text y="34.235" class="f">akshay@akshay-laptop</text><text x="20.04" y="34.235" class="g">:</text><text x="21.042" y="34.235" class="h">~/Documents/bloch-repos/demo</text><text x="49.098" y="34.235" class="g">$</text><text x="51.102" y="34.235" class="g">bloch</text><text x="57.114" y="34.235" class="g">bell.bloch</text><text x="68.136" y="34.235" class="g">--shots=81</text></svg><svg x="7332"><use xlink:href="#a"/><use xlink:href="#b" x="78.996" y="32.54"/><use xlink:href="#3"/><use xlink:href="#4" y="2.171"/><use xlink:href="#5" y="4.342"/><use xlink:href="#6" y="6.513"/><use xlink:href="#7" y="8.684"/><use xlink:href="#8" y="13.026"/><use xlink:href="#9" y="15.197"/><use xlink:href="#10" y="19.539"/><use xlink:href="#11" y="23.881"/><use xlink:href="#12" y="26.052"/><use xlink:href="#13" y="28.223"/><use xlink:href="#7" y="30.394"/><text y="34.235" class="f">akshay@akshay-laptop</text><text x="20.04" y="34.235" class="g">:</text><text x="21.042" y="34.235" class="h">~/Documents/bloch-repos/demo</text><text x="49.098" y="34.235" class="g">$</text><text x="51.102" y="34.235" class="g">bloch</text><text x="57.114" y="34.235" class="g">bell.bloch</text><text x="68.136" y="34.235" class="g">--shots=819</text></svg><svg x="7488"><use xlink:href="#a"/><use xlink:href="#b" x="79.996" y="32.54"/><use xlink:href="#3"/><use xlink:href="#4" y="2.171"/><use xlink:href="#5" y="4.342"/><use xlink:href="#6" y="6.513"/><use xlink:href="#7" y="8.684"/><use xlink:href="#8" y="13.026"/><use xlink:href="#9" y="15.197"/><use xlink:href="#10" y="19.539"/><use xlink:href="#11" y="23.881"/><use xlink:href="#12" y="26.052"/><use xlink:href="#13" y="28.223"/><use xlink:href="#7" y="30.394"/><use xlink:href="#16" y="32.565"/></svg><svg x="7644"><use xlink:href="#a"/><use xlink:href="#b" x="-.004" y="34.711"/><use xlink:href="#3"/><use xlink:href="#4" y="2.171"/><use xlink:href="#5" y="4.342"/><use xlink:href="#6" y="6.513"/><use xlink:href="#7" y="8.684"/><use xlink:href="#8" y="13.026"/><use xlink:href="#9" y="15.197"/><use xlink:href="#10" y="19.539"/><use xlink:href="#11" y="23.881"/><use xlink:href="#12" y="26.052"/><use xlink:href="#13" y="28.223"/><use xlink:href="#7" y="30.394"/><use xlink:href="#16" y="32.565"/></svg><svg x="7800"><use xlink:href="#a"/><use xlink:href="#b" x="-.004" y="36.882"/><use xlink:href="#3"/><use xlink:href="#4" y="2.171"/><use xlink:href="#5" y="4.342"/><use xlink:href="#6" y="6.513"/><use xlink:href="#7" y="8.684"/><use xlink:href="#8" y="13.026"/><use xlink:href="#9" y="15.197"/><use xlink:href="#10" y="19.539"/><use xlink:href="#11" y="23.881"/><use xlink:href="#12" y="26.052"/><use xlink:href="#13" y="28.223"/><use xlink:href="#7" y="30.394"/><use xlink:href="#16" y="32.565"/><use xlink:href="#17" y="34.736"/></svg><svg x="7956"><use xlink:href="#a"/><use xlink:href="#b" x="-.004" y="58.592"/><use xlink:href="#3"/><use xlink:href="#4" y="2.171"/><use xlink:href="#5" y="4.342"/><use xlink:href="#6" y="6.513"/><use xlink:href="#7" y="8.684"/><use xlink:href="#8" y="13.026"/><use xlink:href="#9" y="15.197"/><use xlink:href="#10" y="19.539"/><use xlink:href="#11" y="23.881"/><use xlink:href="#12" y="26.052"/><use xlink:href="#13" y="28.223"/><use xlink:href="#7" y="30.394"/><use xlink:href="#16" y="32.565"/><use xlink:href="#17" y="34.736"/><use xlink:href="#18" y="36.907"/><use xlink:href="#19" y="39.078"/><use xlink:href="#20" y="41.249"/><use xlink:href="#21" y="45.591"/><use xlink:href="#22" y="47.762"/><use xlink:href="#23" y="49.933"/><use xlink:href="#24" y="52.104"/><use xlink:href="#25" y="54.275"/></svg><svg x="8112"><use xlink:href="#a"/><use xlink:href="#b" x="50.996" y="58.592"/><use xlink:href="#3"/><use xlink:href="#4" y="2.171"/><use xlink:href="#5" y="4.342"/><use xlink:href="#6" y="6.513"/><use xlink:href="#7" y="8.684"/><use xlink:href="#8" y="13.026"/><use xlink:href="#9" y="15.197"/><use xlink:href="#10" y="19.539"/><use xlink:href="#11" y="23.881"/><use xlink:href="#12" y="26.052"/><use xlink:href="#13" y="28.223"/><use xlink:href="#7" y="30.394"/><use xlink:href="#16" y="32.565"/><use xlink:href="#17" y="34.736"/><use xlink:href="#18" y="36.907"/><use xlink:href="#19" y="39.078"/><use xlink:href="#20" y="41.249"/><use xlink:href="#21" y="45.591"/><use xlink:href="#22" y="47.762"/><use xlink:href="#23" y="49.933"/><use xlink:href="#24" y="52.104"/><use xlink:href="#25" y="54.275"/><use xlink:href="#1" y="58.617"/></svg><svg x="8268"><use xlink:href="#a"/><use xlink:href="#b" x="-.004" y="62.934"/><use xlink:href="#3"/><use xlink:href="#4" y="2.171"/><use xlink:href="#5" y="4.342"/><use xlink:href="#6" y="6.513"/><use xlink:href="#7" y="8.684"/><use xlink:href="#8" y="13.026"/><use xlink:href="#9" y="15.197"/><use xlink:href="#10" y="19.539"/><use xlink:href="#11" y="23.881"/><use xlink:href="#12" y="26.052"/><use xlink:href="#13" y="28.223"/><use xlink:href="#7" y="30.394"/><use xlink:href="#16" y="32.565"/><use xlink:href="#17" y="34.736"/><use xlink:href="#18" y="36.907"/><use xlink:href="#19" y="39.078"/><use xlink:href="#20" y="41.249"/><use xlink:href="#21" y="45.591"/><use xlink:href="#22" y="47.762"/><use xlink:href="#23" y="49.933"/><use xlink:href="#24" y="52.104"/><use xlink:href="#25" y="54.275"/><use xlink:href="#1" y="58.617"/><text y="62.458" class="g">exit</text></svg></svg></g></g></svg></svg>